<svg width="20" height="17" viewBox="0 0 20 17" fill="none" xmlns="http://www.w3.org/2000/svg">
<path d="M16.8912 1.01011C17.2368 0.679306 17.6967 0.496423 18.1738 0.500053C18.651 0.503683 19.1081 0.693543 19.4487 1.02957C19.7893 1.36559 19.9867 1.8215 19.9994 2.3011C20.012 2.78069 19.8388 3.24645 19.5163 3.6001L9.72714 15.9087C9.55881 16.091 9.35565 16.2373 9.1298 16.3388C8.90396 16.4404 8.66007 16.4951 8.41271 16.4997C8.16536 16.5043 7.91962 16.4587 7.69019 16.3656C7.46076 16.2726 7.25236 16.134 7.07743 15.9581L0.585654 9.43128C0.404869 9.26192 0.259866 9.05768 0.159295 8.83075C0.0587241 8.60382 0.00464558 8.35884 0.000286364 8.11045C-0.00407285 7.86205 0.0413766 7.61531 0.133923 7.38495C0.226468 7.15459 0.364215 6.94534 0.538945 6.76967C0.713676 6.59399 0.921809 6.4555 1.15093 6.36246C1.38005 6.26941 1.62547 6.22372 1.87253 6.2281C2.1196 6.23248 2.36326 6.28685 2.58897 6.38797C2.81469 6.48908 3.01783 6.63487 3.18629 6.81663L8.32377 11.9793L16.8445 1.06438L16.8912 1.01011Z" fill="url(#paint0_linear_640_769)"/>
<defs>
<linearGradient id="paint0_linear_640_769" x1="-2.13488" y1="0.464728" x2="21.7786" y2="1.17907" gradientUnits="userSpaceOnUse">
<stop/>
<stop offset="0.515" stop-color="#2A2E33"/>
<stop offset="1" stop-color="#405066"/>
</linearGradient>
</defs>
</svg>
