<svg width="162" height="43" viewBox="0 0 162 43" fill="none" xmlns="http://www.w3.org/2000/svg">
<path d="M9.48997 33.1877C7.74512 33.1877 6.15091 32.752 4.70733 31.8806C3.2763 30.9966 2.13399 29.778 1.28039 28.2247C0.426798 26.6714 0 24.8907 0 22.8828C0 20.9128 0.414245 19.1574 1.24273 17.6167C2.07122 16.0634 3.20726 14.8385 4.65084 13.9418C6.10697 13.0326 7.77023 12.578 9.64061 12.578C10.9963 12.578 12.2516 12.8432 13.4065 13.3736C14.5613 13.8913 15.5216 14.6175 16.2874 15.552V0H22.0679V32.5815H16.2874V30.0242C15.4338 31.0219 14.4232 31.7985 13.2558 32.3542C12.0884 32.9098 10.8331 33.1877 9.48997 33.1877ZM11.2223 28.2436C12.239 28.2436 13.1366 28.0163 13.9149 27.5617C14.6931 27.0944 15.302 26.4567 15.7413 25.6485C16.1932 24.8402 16.4192 23.9247 16.4192 22.9018C16.4192 21.8662 16.1932 20.9443 15.7413 20.1361C15.302 19.3279 14.6931 18.6902 13.9149 18.2229C13.1366 17.7557 12.2453 17.522 11.2411 17.522C10.2494 17.522 9.36444 17.7557 8.58616 18.2229C7.82044 18.6902 7.21162 19.3342 6.75972 20.1551C6.30782 20.9633 6.08187 21.8852 6.08187 22.9207C6.08187 23.9436 6.30154 24.8592 6.74089 25.6674C7.18024 26.463 7.78906 27.0944 8.56734 27.5617C9.34561 28.0163 10.2306 28.2436 11.2223 28.2436Z" fill="black"/>
<path d="M28.8489 32.5815V13.1841H34.6294V32.5815H28.8489ZM31.7486 9.14934C31.1209 9.14934 30.5435 8.9978 30.0163 8.69471C29.5016 8.379 29.0874 7.95595 28.7735 7.42555C28.4597 6.89515 28.3028 6.31424 28.3028 5.68282C28.3028 5.05139 28.4597 4.4768 28.7735 3.95903C29.0874 3.44126 29.5016 3.03084 30.0163 2.72775C30.5435 2.41204 31.1209 2.25418 31.7486 2.25418C32.3762 2.25418 32.9474 2.41204 33.462 2.72775C33.9767 3.03084 34.3847 3.44126 34.6859 3.95903C34.9998 4.4768 35.1567 5.05139 35.1567 5.68282C35.1567 6.31424 34.9998 6.89515 34.6859 7.42555C34.3847 7.95595 33.9767 8.379 33.462 8.69471C32.9474 8.9978 32.3762 9.14934 31.7486 9.14934Z" fill="black"/>
<path d="M50.7279 43C48.1295 43 45.9453 42.5201 44.1753 41.5604C42.4054 40.6132 41.1187 39.2115 40.3153 37.3551L45.0226 35.0441C45.5499 35.9407 46.3281 36.6542 47.3575 37.1846C48.3868 37.715 49.504 37.9802 50.7091 37.9802C51.8012 37.9802 52.7615 37.7592 53.59 37.3172C54.4185 36.8878 55.0649 36.2753 55.5294 35.4797C55.9938 34.6968 56.2261 33.7875 56.2261 32.752V30.0242C55.3725 31.0219 54.362 31.7985 53.1946 32.3542C52.0271 32.9098 50.7719 33.1877 49.4287 33.1877C47.6838 33.1877 46.0896 32.752 44.646 31.8806C43.215 30.9966 42.0727 29.778 41.2191 28.2247C40.3655 26.6714 39.9387 24.8907 39.9387 22.8828C39.9387 20.9128 40.353 19.1574 41.1815 17.6167C42.0225 16.0634 43.1648 14.8385 44.6084 13.9418C46.0645 13.0326 47.7215 12.578 49.5793 12.578C50.935 12.578 52.1903 12.8432 53.3452 13.3736C54.5001 13.8913 55.4604 14.6175 56.2261 15.552V13.1841H62.0067V33.1119C62.0067 35.0188 61.5924 36.7173 60.7639 38.2075C59.948 39.6977 58.7053 40.8658 57.0357 41.7119C55.3662 42.5706 53.2636 43 50.7279 43ZM51.161 28.2436C52.1778 28.2436 53.0753 28.0163 53.8536 27.5617C54.6444 27.0944 55.2595 26.463 55.6989 25.6674C56.1382 24.8592 56.3579 23.9436 56.3579 22.9207C56.3579 21.8725 56.1319 20.9443 55.68 20.1361C55.2407 19.3279 54.6319 18.6902 53.8536 18.2229C53.0753 17.7557 52.1903 17.522 51.1987 17.522C50.207 17.522 49.322 17.7557 48.5437 18.2229C47.7654 18.6902 47.1503 19.3342 46.6984 20.1551C46.2465 20.9633 46.0206 21.8852 46.0206 22.9207C46.0206 23.9436 46.2403 24.8592 46.6796 25.6674C47.119 26.463 47.7278 27.0944 48.5061 27.5617C49.2843 28.0163 50.1693 28.2436 51.161 28.2436Z" fill="black"/>
<path d="M68.7876 32.5815V13.1841H74.5682V32.5815H68.7876ZM71.6873 9.14934C71.0596 9.14934 70.4822 8.9978 69.955 8.69471C69.4403 8.379 69.0261 7.95595 68.7123 7.42555C68.3984 6.89515 68.2415 6.31424 68.2415 5.68282C68.2415 5.05139 68.3984 4.4768 68.7123 3.95903C69.0261 3.44126 69.4403 3.03084 69.955 2.72775C70.4822 2.41204 71.0596 2.25418 71.6873 2.25418C72.3149 2.25418 72.8861 2.41204 73.4008 2.72775C73.9154 3.03084 74.3234 3.44126 74.6247 3.95903C74.9385 4.4768 75.0954 5.05139 75.0954 5.68282C75.0954 6.31424 74.9385 6.89515 74.6247 7.42555C74.3234 7.95595 73.9154 8.379 73.4008 8.69471C72.8861 8.9978 72.3149 9.14934 71.6873 9.14934Z" fill="black"/>
<path d="M88.0305 33.1877C86.1099 33.1877 84.6162 32.5752 83.5492 31.3502C82.4822 30.1126 81.9487 28.3888 81.9487 26.1789V17.5978H79.3691V13.1841H81.9487V5.91013H87.7293V13.1841H91.9659V17.5978H87.7293V25.7621C87.7293 26.4946 87.8736 27.0502 88.1623 27.4291C88.4636 27.8079 88.8841 27.9974 89.4239 27.9974C90.0264 27.9974 90.6039 27.7953 91.1562 27.3912L92.6061 32.0511C91.9533 32.4047 91.219 32.6825 90.403 32.8846C89.5996 33.0866 88.8088 33.1877 88.0305 33.1877Z" fill="black"/>
<path d="M107.054 33.1877C103.54 33.1877 101.004 32.4868 99.4473 31.085C97.8907 29.6833 97.1124 27.3912 97.1124 24.2088V13.1841H102.893V22.8449C102.893 24.8907 103.207 26.3367 103.835 27.1828C104.475 28.0289 105.548 28.452 107.054 28.452C108.586 28.452 109.659 28.0289 110.274 27.1828C110.902 26.3367 111.216 24.8907 111.216 22.8449V13.1841H116.996V24.2088C116.996 27.3912 116.218 29.6833 114.661 31.085C113.117 32.4868 110.582 33.1877 107.054 33.1877Z" fill="black"/>
<path d="M123.345 32.5815V13.1841H129.126V15.9687C129.841 14.8827 130.714 14.0492 131.743 13.4683C132.785 12.8747 133.902 12.578 135.095 12.578C135.773 12.578 136.475 12.679 137.204 12.8811C137.932 13.0831 138.54 13.342 139.03 13.6577L136.62 18.5639C136.193 18.2734 135.691 18.0461 135.114 17.8819C134.549 17.7051 134.021 17.6167 133.532 17.6167C132.779 17.6167 132.063 17.8125 131.385 18.204C130.707 18.5954 130.161 19.1069 129.747 19.7383C129.333 20.3571 129.126 21.0264 129.126 21.7463V32.5815H123.345Z" fill="black"/>
<path d="M142.248 32.5815V13.1841H148.029V15.3436C148.769 14.5101 149.692 13.8408 150.797 13.3357C151.914 12.8305 153.144 12.578 154.487 12.578C155.968 12.578 157.268 12.9063 158.385 13.563C159.515 14.207 160.4 15.11 161.04 16.2718C161.68 17.421 162 18.7659 162 20.3066V32.5815H156.219V21.5379C156.219 20.1488 155.855 19.069 155.127 18.2987C154.412 17.5157 153.426 17.1242 152.171 17.1242C151.318 17.1242 150.577 17.301 149.949 17.6546C149.334 17.9956 148.857 18.4692 148.518 19.0753C148.192 19.6689 148.029 20.3445 148.029 21.1022V32.5815H142.248Z" fill="black"/>
</svg>
